<svg xmlns="http://www.w3.org/2000/svg" xmlns:xlink="http://www.w3.org/1999/xlink" viewBox="0 0 87 100" class="mainIcon"><defs>
	<style>.cls-1,.cls-2,.cls-3,.cls-4{stroke:#1d1d1b;}.cls-1,.cls-2,.cls-3,.cls-4,.cls-6{stroke-miterlimit:10;}.cls-1{fill:url(#linear-gradient);}.cls-2{fill:url(#linear-gradient-2);}.cls-3{fill:url(#linear-gradient-3);}.cls-4{fill:#e2e2e1;}.cls-5{fill:#1d1d1b;}.cls-6{fill:none;stroke-width:6px;stroke:url(#White_Black);}
		
	</style>

	<linearGradient id="linear-gradient" x1="81.59" y1="83.16" x2="131.59" y2="83.16" gradientUnits="userSpaceOnUse"><stop offset="0" stop-color="#fff"/><stop offset="1"/></linearGradient><linearGradient id="linear-gradient-2" x1="28.81" y1="28" x2="33.47" y2="28" xlink:href="#linear-gradient"/><linearGradient id="linear-gradient-3" x1="51.97" y1="28.7" x2="56.97" y2="28.7" xlink:href="#linear-gradient"/><linearGradient id="White_Black" y1="50" x2="87" y2="50" gradientUnits="userSpaceOnUse"><stop offset="0" stop-color="#fff"/><stop offset="1" stop-color="#1d1d1b"/></linearGradient></defs><title>calendar_icon</title><g id="calendar_icon"><g id="main_shape"><path class="cls-1" d="M124.85,58.94H123v4.58a4.58,4.58,0,1,1-9.17,0V58.94H99.42v4.32a4.38,4.38,0,1,1-8.75,0V58.94H88.33a6.76,6.76,0,0,0-6.74,6.74v35a6.76,6.76,0,0,0,6.74,6.74h36.52a6.76,6.76,0,0,0,6.74-6.74v-35A6.76,6.76,0,0,0,124.85,58.94Z" transform="translate(-64.03 -30.94)"/></g><g id="other_pieces"><rect class="cls-2" x="28.81" y="22.36" width="4.67" height="11.27" rx="2.33" ry="2.33"/><rect class="cls-3" x="51.97" y="23.06" width="5" height="11.27" rx="2.5" ry="2.5"/><path class="cls-4" d="M21,42.83H64.81a0,0,0,0,1,0,0V67.11a3.55,3.55,0,0,1-3.55,3.55H24.19A3.22,3.22,0,0,1,21,67.45V42.83A0,0,0,0,1,21,42.83Z"/></g><g id="black_rectangles"><rect class="cls-5" x="25.72" y="46.63" width="7.38" height="5.37"/><rect class="cls-5" x="35.1" y="46.63" width="7.38" height="5.37"/><rect class="cls-5" x="43.89" y="46.63" width="7.38" height="5.37"/><rect class="cls-5" x="25.72" y="54" width="7.38" height="5.37"/><rect class="cls-5" x="35.1" y="54" width="7.38" height="5.37"/><rect class="cls-5" x="43.89" y="54" width="7.38" height="5.37"/><rect class="cls-5" x="52.97" y="46.63" width="7.38" height="5.37"/><rect class="cls-5" x="52.97" y="54.06" width="7.38" height="5.37"/><rect class="cls-5" x="25.72" y="61.25" width="7.38" height="5.37"/><rect class="cls-5" x="35.1" y="61.25" width="7.38" height="5.37"/><rect class="cls-5" x="43.89" y="61.25" width="7.38" height="5.37"/><rect class="cls-5" x="52.97" y="61.31" width="7.38" height="5.37"/></g><g id="outside_rectangle"><rect class="cls-6" x="3" y="3" width="81" height="94" rx="12" ry="12"/></g></g></svg>