<svg xmlns="http://www.w3.org/2000/svg" xmlns:xlink="http://www.w3.org/1999/xlink" viewBox="0 0 87 100" class="mainIcon"><defs>
	<style>.cls-1{fill:none;stroke-width:6px;stroke:url(#White_Black);}.cls-1,.cls-10,.cls-11,.cls-12,.cls-13,.cls-2,.cls-3,.cls-4,.cls-5,.cls-6,.cls-7,.cls-8,.cls-9{stroke-miterlimit:10;}.cls-10,.cls-11,.cls-12,.cls-13,.cls-2,.cls-3,.cls-4,.cls-5,.cls-6,.cls-7,.cls-8,.cls-9{stroke:#1d1d1b;stroke-width:0.25px;}.cls-2{fill:url(#linear-gradient);}.cls-3{fill:url(#linear-gradient-2);}.cls-4{fill:url(#linear-gradient-3);}.cls-5{fill:url(#linear-gradient-4);}.cls-6{fill:url(#linear-gradient-5);}.cls-7{fill:url(#linear-gradient-6);}.cls-8{fill:url(#linear-gradient-7);}.cls-9{fill:url(#linear-gradient-8);}.cls-10{fill:url(#linear-gradient-9);}.cls-11{fill:url(#linear-gradient-10);}.cls-12{fill:url(#linear-gradient-11);}.cls-13{fill:#fff;}
		#small_circle{
	display: block;
	}
	@media screen and (max-width: 100px) {
	#small_circle {
	display:none;
	}
	}
	.cls-1:hover{
		display:block;
		fill: black;
		}
	</style>

	<linearGradient id="White_Black" y1="50" x2="87" y2="50" gradientUnits="userSpaceOnUse"><stop offset="0" stop-color="#fff"/><stop offset="1" stop-color="#1d1d1b"/></linearGradient><linearGradient id="linear-gradient" x1="239.54" y1="407.67" x2="245.77" y2="411.27" gradientUnits="userSpaceOnUse"><stop offset="0" stop-color="#fff"/><stop offset="0.63" stop-color="#6e6e6c"/><stop offset="1" stop-color="#1d1d1b"/></linearGradient><linearGradient id="linear-gradient-2" x1="264.42" y1="407.67" x2="270.65" y2="411.27" gradientTransform="matrix(-1, 0, 0, 1, 485.22, 0)" xlink:href="#linear-gradient"/><linearGradient id="linear-gradient-3" x1="245.82" y1="411.38" x2="250.67" y2="414.19" xlink:href="#linear-gradient"/><linearGradient id="linear-gradient-4" x1="279.88" y1="411.38" x2="284.74" y2="414.19" gradientTransform="matrix(-1, 0, 0, 1, 494.45, 0)" xlink:href="#linear-gradient"/><linearGradient id="linear-gradient-5" x1="208.75" y1="373.47" x2="251.32" y2="373.47" gradientUnits="userSpaceOnUse"><stop offset="0" stop-color="#fff"/><stop offset="0.17" stop-color="#d6d6d6"/><stop offset="0.4" stop-color="#a5a4a4"/><stop offset="0.6" stop-color="#828181"/><stop offset="0.77" stop-color="#6c6b6b"/><stop offset="0.87" stop-color="#646363"/><stop offset="0.9" stop-color="#515150"/><stop offset="0.94" stop-color="#353433"/><stop offset="0.97" stop-color="#232321"/><stop offset="1" stop-color="#1d1d1b"/></linearGradient><linearGradient id="linear-gradient-6" x1="200.46" y1="394.88" x2="210.67" y2="394.88" gradientUnits="userSpaceOnUse"><stop offset="0" stop-color="#fff"/><stop offset="0.09" stop-color="#f6f6f6"/><stop offset="0.24" stop-color="#ddd"/><stop offset="0.44" stop-color="#b4b4b4"/><stop offset="0.67" stop-color="#7c7c7b"/><stop offset="0.92" stop-color="#353534"/><stop offset="1" stop-color="#1d1d1b"/></linearGradient><linearGradient id="linear-gradient-7" x1="203.91" y1="412.83" x2="213.11" y2="418.15" xlink:href="#linear-gradient-6"/><linearGradient id="linear-gradient-8" x1="249.69" y1="394.9" x2="259.9" y2="394.9" gradientUnits="userSpaceOnUse"><stop offset="0" stop-color="#fff"/><stop offset="0.1" stop-color="#f9f9f9"/><stop offset="0.23" stop-color="#e7e7e7"/><stop offset="0.39" stop-color="#cbcbca"/><stop offset="0.56" stop-color="#a3a3a2"/><stop offset="0.75" stop-color="#70706f"/><stop offset="0.94" stop-color="#323231"/><stop offset="1" stop-color="#1d1d1b"/></linearGradient><linearGradient id="linear-gradient-9" x1="248.13" y1="414.95" x2="256.19" y2="414.95" xlink:href="#linear-gradient"/><linearGradient id="linear-gradient-10" x1="245.56" y1="423.17" x2="251.04" y2="423.17" xlink:href="#linear-gradient"/><linearGradient id="linear-gradient-11" x1="209.17" y1="423.17" x2="214.75" y2="423.17" xlink:href="#linear-gradient-8"/></defs><title>headphone_icons</title><g id="headphones_icon"><g id="rectangle"><rect class="cls-1" x="3" y="3" width="81" height="94" rx="12" ry="12"/></g><g id="earplugs"><path class="cls-2" d="M240.25,406.75s4.56-8.19,4.81-8.56.75-1.5,1-1.75,1.06-1,1.62-1a4.43,4.43,0,0,1,2,.56,5.09,5.09,0,0,1,2,1.56,3.19,3.19,0,0,1,0,2.63c-.44.88-12,21.81-12.31,22.13a2.51,2.51,0,0,1-3.19.85C234.44,422.25,234,422,234,422s-1.69-1.25,0-3.87S240.25,406.75,240.25,406.75Z" transform="translate(-186.29 -349.33)"/><path class="cls-3" d="M220.1,406.75s-4.56-8.19-4.81-8.56-.75-1.5-1-1.75-1.06-1-1.62-1a4.43,4.43,0,0,0-2,.56,5.09,5.09,0,0,0-2,1.56,3.19,3.19,0,0,0,0,2.63c.44.88,12,21.81,12.31,22.13a2.51,2.51,0,0,0,3.19.85c1.75-.92,2.19-1.17,2.19-1.17s1.69-1.25,0-3.87S220.1,406.75,220.1,406.75Z" transform="translate(-186.29 -349.33)"/><path class="cls-4" d="M251.5,412.14s3.09-5.27,3.3-5.93a6.81,6.81,0,0,0,0-3.79,17.79,17.79,0,0,0-1-2.17s.19-.56-.16-.75-.66-.3-.81-.17-13.28,24.07-13.28,24.07-.28.38,0,.63.59.5.81.31l.22-.19s4.41-.31,5.75-2.41S251.5,412.14,251.5,412.14Z" transform="translate(-186.29 -349.33)"/><path class="cls-5" d="M208.89,412.14s-3.09-5.27-3.3-5.93a6.81,6.81,0,0,1,0-3.79,17.79,17.79,0,0,1,1-2.17s-.19-.56.16-.75.66-.3.81-.17,13.28,24.07,13.28,24.07.28.38,0,.63-.59.5-.81.31l-.22-.19s-4.41-.31-5.75-2.41S208.89,412.14,208.89,412.14Z" transform="translate(-186.29 -349.33)"/></g><g id="head_piece"><path class="cls-6" d="M208.75,377s5.56-6,10.63-7.56a39,39,0,0,1,11.13-1.93,28.12,28.12,0,0,1,10.38,2,36.48,36.48,0,0,1,8.81,5.56c1.82,1.62,1.63,1.81,1.63,1.81l-2.37,2.56s-6.37-3.69-9.37-4.56-6.25-1.94-9.12-1.81-7.25.56-10.25,1.94-8.87,4.44-8.87,4.44Z" transform="translate(-186.29 -349.33)"/><path class="cls-7" d="M208.75,377.67l1.92,1.77a38.94,38.94,0,0,0-4.87,7.06,27.6,27.6,0,0,0-2.54,8.83,30.5,30.5,0,0,0,1.17,10.5l1.25,3.83a5.11,5.11,0,0,0-1.67,2.42,40.87,40.87,0,0,1-2.73-7.54,41.58,41.58,0,0,1-.77-8.71,30.91,30.91,0,0,1,1.71-7.65,26.86,26.86,0,0,1,2.83-5.67A58.82,58.82,0,0,1,208.75,377.67Z" transform="translate(-186.29 -349.33)"/><path class="cls-8" d="M206.5,409.56l5.69,10.19a5,5,0,0,1-4.52,0,6.32,6.32,0,0,1-3.58-4.37,5.85,5.85,0,0,1,.63-3.92C205.18,410.72,206,409.71,206.5,409.56Z" transform="translate(-186.29 -349.33)"/><path class="cls-9" d="M251.63,377.67l-1.94,1.77s3.75,4.38,5.12,7.69a25.7,25.7,0,0,1,2.31,9.44,33.85,33.85,0,0,1-.75,7.75c-.5,1.88-1.69,5.25-1.69,5.25a6.79,6.79,0,0,1,1.62,2.52c.13,1,4.29-10.27,3.49-16.08s-1.36-8.19-3.61-11.94C254.31,380.93,252.47,377.88,251.63,377.67Z" transform="translate(-186.29 -349.33)"/><path class="cls-10" d="M253.79,409.58l-5.67,10.25a5.24,5.24,0,0,0,3.67.25,5.67,5.67,0,0,0,4-3.54,6.3,6.3,0,0,0-.21-5C254.79,410.33,254.25,409.75,253.79,409.58Z" transform="translate(-186.29 -349.33)"/><path class="cls-11" d="M247.25,425.75l-1.69-1.25,2.87-3.92a8.39,8.39,0,0,0,2.6.21Z" transform="translate(-186.29 -349.33)"/><path class="cls-12" d="M213.13,425.75l1.63-1.25-2.83-3.92a14.06,14.06,0,0,1-2.75.21Z" transform="translate(-186.29 -349.33)"/></g><g id="small_circle"><circle class="cls-13" cx="207.63" cy="415.69" r="1.11" transform="matrix(0.57, -0.82, 0.82, 0.57, -438.83, 1.92)"/><circle class="cls-13" cx="253.08" cy="416.06" r="1.11" transform="matrix(0.57, -0.82, 0.82, 0.57, -419.43, 39.53)"/></g></g></svg>