<svg xmlns="http://www.w3.org/2000/svg" xmlns:xlink="http://www.w3.org/1999/xlink" viewBox="0 0 87 100" id="microphoneIcon" class="mainIcon"><defs>
	<style>.cls-1{fill:none;stroke-width:6px;stroke:url(#White_Black);}.cls-1,.cls-2,.cls-3{stroke-miterlimit:10;}.cls-2,.cls-3{stroke:#1d1d1c;stroke-width:0.75px;}.cls-2{fill:url(#linear-gradient);}.cls-3{fill:url(#linear-gradient-2);}
		.cls-1:hover{
		display:block;
		fill: black;
		}
	</style>
	<linearGradient id="White_Black" y1="50" x2="87" y2="50" gradientUnits="userSpaceOnUse"><stop offset="0" stop-color="#fff"/><stop offset="1" stop-color="#1d1d1b"/></linearGradient><linearGradient id="linear-gradient" x1="209.72" y1="138.87" x2="250.93" y2="138.87" gradientUnits="userSpaceOnUse"><stop offset="0" stop-color="#fff"/><stop offset="0.03" stop-color="#f5f5f5"/><stop offset="0.3" stop-color="#a9a9a8"/><stop offset="0.55" stop-color="#6d6d6c"/><stop offset="0.75" stop-color="#424240"/><stop offset="0.91" stop-color="#272725"/><stop offset="1" stop-color="#1d1d1b"/></linearGradient><linearGradient id="linear-gradient-2" x1="219.43" y1="122.39" x2="241.09" y2="122.39" gradientUnits="userSpaceOnUse"><stop offset="0" stop-color="#fff"/><stop offset="0.36" stop-color="#a2a2a1"/><stop offset="0.67" stop-color="#5a5a59"/><stop offset="0.89" stop-color="#2e2e2c"/><stop offset="1" stop-color="#1d1d1b"/></linearGradient></defs><title>microphone_icon</title><g id="microphone_icon"><g id="rectangle"><rect class="cls-1" x="3" y="3" width="81" height="94" rx="12" ry="12"/></g><g id="stand"><path class="cls-2" d="M220.94,163.38H239.5V159h-4.25v-7.75s6.88-.87,10.63-5,4.88-7.37,5-10,0-20.12,0-20.12a2.89,2.89,0,0,0-2.37-1.75,2.33,2.33,0,0,0-2.44,1.81c0,.44.06,18.56,0,18.88s-.5,4.88-3.44,7.63-5.31,4.19-8.62,4.44a55.75,55.75,0,0,1-8.69-.19c-.75-.12-6.81-2.19-9.12-7.12s-1.56-23.62-1.56-23.62a2.29,2.29,0,0,0-2-1.81,2.36,2.36,0,0,0-2.56,1.56c-.12.63-.71,18.14,0,21.13a18.12,18.12,0,0,0,4.62,8.63c2.55,2.59,4.87,5,10.69,5.44l.06,7.56-4.37.06Z" transform="translate(-186.67 -81)"/></g><g id="microphone"><path class="cls-3" d="M233.5,101.67s7.33,1.92,7.58,7.58v3.13h-8v2h8V117h-8v1.71h8v2.71h-8v1.71l8,.17v2.58h-8v1.83h8v2.71h-8v2h8s.08,3.71-.37,4.83a10,10,0,0,1-3.6,4.33c-1.82,1.08-2.4,1.42-4,1.54s-6.33.25-7.42-.25-3.54-1.79-4.54-3.71a12.16,12.16,0,0,1-1.62-4,9.26,9.26,0,0,1,0-2.83l8.08,0V130.5l-8-.08v-2.75h7.88V126h-8.07v-2.83h8.07V121.5h-7.83v-2.83h7.88v-1.79h-8.11v-2.71h8.15v-1.71h-8.15s-.22-5.54,2.86-8.12,5.13-2.58,6.17-2.67S233.5,101.67,233.5,101.67Z" transform="translate(-186.67 -81)"/></g></g></svg>