<svg xmlns="http://www.w3.org/2000/svg" xmlns:xlink="http://www.w3.org/1999/xlink" viewBox="0 0 87 100"><defs><style>.cls-1{fill:#020202;}.cls-2,.cls-6{fill:none;}.cls-2,.cls-3,.cls-4,.cls-5{stroke:#020202;stroke-width:0.5px;}.cls-2,.cls-3,.cls-4,.cls-5,.cls-6{stroke-miterlimit:10;}.cls-3{fill:url(#White_Black);}.cls-4{fill:url(#White_Black-2);}.cls-5{fill:url(#White_Black-3);}.cls-6{stroke-width:6px;stroke:url(#White_Black-4);}</style><linearGradient id="White_Black" x1="332.17" y1="394.2" x2="372.16" y2="394.2" gradientUnits="userSpaceOnUse"><stop offset="0" stop-color="#fff"/><stop offset="1" stop-color="#1d1d1b"/></linearGradient><linearGradient id="White_Black-2" x1="36.37" y1="66.94" x2="43.49" y2="66.94" xlink:href="#White_Black"/><linearGradient id="White_Black-3" x1="55.27" y1="66.94" x2="62.4" y2="66.94" xlink:href="#White_Black"/><linearGradient id="White_Black-4" x1="0" y1="50" x2="87" y2="50" xlink:href="#White_Black"/></defs><title>shopping_cart_icon</title><g id="shopping_cart_icon_icon"><g id="cart"><path class="cls-1" d="M320.17,376.5c2.17-.08,4.33-.13,6.5-.18h0a3.12,3.12,0,0,1,2,.76,6.77,6.77,0,0,1,1.37,1.56,15.67,15.67,0,0,1,1.67,3.72l2.14,7.74c1.39,5.15,2.85,10.29,4.19,15.46l.51,2a3.48,3.48,0,0,0,.26.82,1.06,1.06,0,0,0,.55.41,7.36,7.36,0,0,0,1.84.33c.65.06,1.31.09,2,.11,2.65.07,5.33.06,8,.12,5.35.07,10.69.17,16,.36-5.35.18-10.69.29-16,.36-2.67,0-5.34.11-8,0-.67,0-1.35,0-2-.09a8.06,8.06,0,0,1-2.1-.37,2,2,0,0,1-1-.79,4.1,4.1,0,0,1-.38-1.08l-.52-1.91c-1.42-5.16-2.74-10.35-4.11-15.52l-1-3.89c-.33-1.29-.59-2.62-.94-3.88a15.09,15.09,0,0,0-1.49-3.62,6.83,6.83,0,0,0-1.21-1.49,2.79,2.79,0,0,0-1.64-.76h0C324.5,376.63,322.33,376.58,320.17,376.5Z" transform="translate(-303.3 -348)"/><path class="cls-2" d="M332.17,385.68c2,8,5.33,19.93,5.69,21.22.4,1.46-.43,2.76,8.94,2.76" transform="translate(-303.3 -348)"/><path class="cls-3" d="M366.76,403.63H336.93l-4.76-17.94,39.18-.91a.8.8,0,0,1,.79,1l-4,16.78A1.42,1.42,0,0,1,366.76,403.63Z" transform="translate(-303.3 -348)"/><circle class="cls-4" cx="39.93" cy="66.94" r="3.56"/><circle class="cls-5" cx="58.84" cy="66.94" r="3.56"/></g><g id="square"><rect id="square-2" data-name="square" class="cls-6" x="3" y="3" width="81" height="94" rx="12" ry="12"/></g><g id="fast_lines"><path class="cls-1" d="M322.5,389.5c3-.21,6-.22,9-.25s6,0,9,.25c-3,.21-6,.22-9,.25S325.5,389.71,322.5,389.5Z" transform="translate(-303.3 -348)"/><path class="cls-1" d="M320.17,394.2a24.48,24.48,0,0,1,3.67-.25,24.17,24.17,0,0,1,3.67.25,24.17,24.17,0,0,1-3.67.25A24.48,24.48,0,0,1,320.17,394.2Z" transform="translate(-303.3 -348)"/><path class="cls-1" d="M330.88,394.2a23.08,23.08,0,0,1,4.4-.37,22.81,22.81,0,0,1,4.4.37,22.81,22.81,0,0,1-4.4.37A23.08,23.08,0,0,1,330.88,394.2Z" transform="translate(-303.3 -348)"/><path class="cls-1" d="M327.5,399.33c1.31-.15,2.62-.23,3.93-.29s2.62-.08,3.93-.09,2.62,0,3.93.09,2.62.13,3.93.29c-1.31.16-2.62.23-3.93.29s-2.62.08-3.93.09-2.62,0-3.93-.09S328.81,399.49,327.5,399.33Z" transform="translate(-303.3 -348)"/></g></g></svg>